<svg width="20" height="20" viewBox="0 0 24 24" fill="none" xmlns="http://www.w3.org/2000/svg">
<g clip-path="url(#clip0_743_126)">
<path d="M4.93644 20.5178L10.9929 18.0228C11.1445 17.9201 11.2962 17.8173 11.3989 17.7195L21.374 5.55765C21.6773 5.09779 21.6284 4.49117 21.2223 4.13404L16.4868 0.215448C16.0954 -0.0731878 15.4937 -0.117217 15.1121 0.367104L5.08809 12.524C4.98536 12.6757 4.93644 12.8274 4.88262 12.9839L3.61067 19.4464C3.54707 20.552 4.43255 20.7428 4.93644 20.5178ZM15.978 2.39734L19.1823 5.04398L10.489 15.6648L7.31401 13.0377L15.978 2.39734ZM6.52638 15.0141L8.69848 16.8144L5.90019 17.969L6.52638 15.0141Z" fill="white"/>
<path d="M22.9494 21.9413H5.85137C5.85137 21.9413 2.30457 22.1076 2.17248 21.1977C2.17248 21.1488 2.08443 20.9237 2.54429 20.366C2.90141 19.9062 2.8476 19.2995 2.44155 18.9424C1.98169 18.5853 1.37507 18.6391 1.01794 19.0451C0.0493012 20.2144 -0.20509 21.2319 0.254771 22.1517C1.50226 24.4754 5.69971 23.9275 5.90029 23.9764H22.9494C23.5071 23.9764 23.9669 23.5166 23.9669 22.9589C23.9718 22.3963 23.5119 21.9413 22.9494 21.9413Z" fill="white"/>
</g>
<defs>
<clipPath id="clip0_743_126">
<rect width="24" height="24" fill="white"/>
</clipPath>
</defs>
</svg>
